<mxfile host="app.diagrams.net" agent="Mozilla/5.0 (Windows NT 10.0; Win64; x64) AppleWebKit/537.36 (KHTML, like Gecko) Chrome/135.0.0.0 Safari/537.36" version="26.2.13">
  <diagram name="Page-1" id="GEcyAMGVulHWf8ITOH4U">
    <mxGraphModel dx="1428" dy="863" grid="1" gridSize="10" guides="1" tooltips="1" connect="1" arrows="1" fold="1" page="1" pageScale="1" pageWidth="850" pageHeight="1100" math="0" shadow="0">
      <root>
        <mxCell id="0" />
        <mxCell id="1" parent="0" />
        <mxCell id="S_wav586HDDoZmovN5GA-94" value="" style="rounded=0;whiteSpace=wrap;html=1;strokeWidth=2;strokeColor=#FF8000;fillColor=#FF8000;" vertex="1" parent="1">
          <mxGeometry x="430" y="760" width="140" height="100" as="geometry" />
        </mxCell>
        <mxCell id="S_wav586HDDoZmovN5GA-68" value="" style="rounded=0;whiteSpace=wrap;html=1;" vertex="1" parent="1">
          <mxGeometry x="588" y="583" width="120" height="60" as="geometry" />
        </mxCell>
        <mxCell id="S_wav586HDDoZmovN5GA-22" value="" style="rounded=1;whiteSpace=wrap;html=1;" vertex="1" parent="1">
          <mxGeometry x="400" y="502" width="440" height="207" as="geometry" />
        </mxCell>
        <mxCell id="S_wav586HDDoZmovN5GA-5" value="" style="shape=image;verticalLabelPosition=bottom;labelBackgroundColor=default;verticalAlign=top;aspect=fixed;imageAspect=0;image=data:image/png,iVBORw0KGgoAAAANSUhEUgAAAF4AAABcCAYAAADnGgJlAAAAAXNSR0IArs4c6QAAAARnQU1BAACxjwv8YQUAAAAJcEhZcwAADsMAAA7DAcdvqGQAAC3oSURBVHhe7X3rr6XXedf8HyCiOLYnY8/FM2N77Lmc276fmXGwkKhalRAUwQc+tCpUSCAIDUgIVQSnSSANqVupqG0uJW0KRYraJmpMW6mNSvhARXFI5uzLOTPJxIlnxh6Pbwv9bmutsznlI5840tbe+93vu961nsvv+T3PWus9x475b7ValtVyWfZXq4LPy+WyLP2+4rH9stpf8ZzlclUWy4XO43Wrsr+P44uyWi74O9vp2uD7alUWi0VZ7e+zTbWt9vD73nzPbe7zXBxbLHL/VZnP53pfLMpysSiLpY7jXNyLY8DnfV2/wDH2F+2oX/WcOi58Rv/VDs/xC59xr32O/UBtZDy9fCAXy4dy2T+ox/E+35uXxRz9XZbIu/7xJAtjHx23EKsS0lE3tlzgxhoMhe9rOUgKsA2Ox3iNBUZhusNQou8xn+OeTSHoBwY7d3sUMM/1fdmHGEz6GANRvyJ0tM3vFN6qLDFGKgN9wzitaAouArVRUIH6ff9gnwpXH9QXtZ3xY3wScjUUvNto1+V+jBfWjkgYsFpoSpZxWIi0qgw81p3B8riuocCrVTRh1vbsBbAsvO/j3r6eg1vEWnN/K9+eFkWwrzQaW/EKVrxflVqtn+O0ohcQiLwv1srz3E95v2QR7+WYLFgoWV5ko/AY493pMw3jYJ/9XZf7Mfw4X0pDeuHEWOJcHmBl1AbRuXiHXTadk+DxfVEWuN4QwYEs1B4tJJ5BT8F5dtHAkgUMIR1WojynKSSubw/CtVSi7kN48rWyTAhwboXr/AZrDUaiDHmDFUjl2QvtydXjKIMYhF9QKsa8OsLiI9AIbJVO+Eb4Pa96ThRAa8NAbZ2rhS0GirEyaFGtM/VzVRAE36ALbUhJOCacrYPgtYtycAAsjxE0j4j1Navza1+WF9ePtfbCElTJoDAm9nUuBUhx8BC04b56HNXT2K76TM8gHBshlov/U/BNW3ErnZiBxXLkZm7MAQiNCs96C9Q5e7Tuzk0rhjsYIejQ5R0Mba0YuDwEcGEoYn90vRQc7xQ86b6CiRxPfwIbVdi+/8HBAZXK+FK9TMEWv6k/MbB4mywY1/B8xwSMUYYmtGBQdtyIQazL/ZiszNq1CwZaZCHC5gxkLzflOXJxwpXhIgMIDNH1V8JV/e5zIsTeG4z3+S7PMhMyvOQevfcJeqTICIHX7CtwB8qqlxiKoqSMp3qhPVLEwP3tPRdeWa1efdG5gSdBZK/QdbmL1cwd9TsBZFBq2BYXHDZOUjmLRdmbA4fxbgvFQM1k2HELHsdxLj7v7e3V6/Id98VnsBniqr2mwtZaHyhM9lEBVcpqLs97clzyTkAUAzPOPwiVbGNE+zAmKobfG1zhXPaV9DDGJUXFq9AvQZXl2CHHutyPUSt2D3a803oggI35hmjosSfOlq3huGwOJ2V7NCtb41m5vD0sV4bjsj2elZ3Z1bIxnJTN0aRsjXfLxmDMzxs7o7IznZWd6bRcGeDcadmZ7pbt8W65MhiV7fGkbE2mZWs84TVbo2k5ceZcmSOg7R/UwTcDsfDtDRqwhEkPq15zGPdhCAzEZkCEDAtcApSXwYuhOArWbC7Buheq4ko8uEeJKPaI4CotzituK8rDmoPrdvvVsvyPP//zMty9VrYns7I5mlLY/DwcU1AbgxE/Q6CbO/g8pfAuD0cU7MZoWoaza+XKzrAMZ1f526XNHQsdCpiVDSh0NC2DiX6HcqGcv/sTPyWqeyBDCSQJ4gwZxtS8ZwwUGBlaYKrFKcKEj1Ghhju2B2+NMq1YGmgU1im0MjwbsuBJmI/+rMv9GDmpKRVdLxhtCBFnXZQHD96gEC4PRhTavXt3ywqu66hNJeFaB0MoL7QvGAg4YYZbcdQDS2wg/dLv4drve+wkFbM1npYLV7aqFdckzoNm8HYgRJuhwmzL8MY+zPeqAtAfWPCcOK6+7jHb9PlMwBT3CF1zGWSLK+ovEz2zKd4/iqMBSEHrcj8Wbl21R6HImkDBIridyS6t8fT5p1o8sEu3m4QJmEZaCcoNjMP4PQyns0B+rzDXgiaE/+47b5cB4Gs0KTcPbjZh8/ckgA2CJKhVmV3/AJWGazfHE3vobhlMrwriRlN6GZQKKNyZARZH8rTRtGwM9RkQCgjcnkzLwydPWfEah2i2+pPyQ7wxMsL41+VOjBcO9kGkCQW/f+azv0CIQKdXqwMLXIFUyhL3VRu4Xh0ALVNC0wJj61CsU53sLYXnJSDTmhfloeOPEfsBY/QyKjeGob4kBnzld36XAhtMdsvmYMJ+EwoBicMxj29sj8rlnWEZX73OmLM5GpcrO6Py7OY2YXIwu0bhbw0n5amLG1LIGFB5tWzsDDVmw1jNhao3ioXVQL5/hOB5cZfVyX3DaiQEQAwCaM6JC/Kcqqgm2GrREXQHLUzxec9kqlKYhO6s2YGv0TZ5AgS4ORrVkkCsHdcHTt555x3FmvGkXNwaqG+ViQkOUbwCjPZjlpVKcQmc4evk5wzi6cOkbI0mwnIywma4gTq2Ww3pKKgBDTRc9C5fufBqWTZGsJRJFUiftMiVLPzQqvyWpKNafKNdsfhgcAYvAWTAwOSWoMEyh7tXy2uv32MbYRhKzXUPBG5Y70MnTjVKSUEY0mr/pHzgu+o96/DgbNUQEuXhHZAD+Pr1L31JikpQJbSuFPssgxTc1uXOBCoZmKqBcCEFRglmWa4MJ8RKCc3uzY46oNoqWS5gB50DROOV6rXvaDfRX4NW3QOfwxiSzCmfWNLKwJrwV7HU2TPu+dr91wkXmyN5Z4TXDMpKIn2MV+qdXmTolKHoHFFJ9FMywfjgVbD8HaBAZ2yHDK4r2s2PYjUSgoOZA5OsU8UzdAi4emUw9M1TEWxBEQP/yZ/6aQaj8bXrFrAGjPNv3bpFeoig9vbbbxv7LIz9/fLeE2Auk/LYE+fozviN7CHeZBh4dmuHuIw/eYGwNN5xaXtEwb/n0fcr5sRraxyxsP3C9fP5soxm18vv/N7XDhUIOX4ndVEI28H4D1ZldPU678XqIw2leXz1/pTaj4KaRifduVhnh9dXEN0nU2O5LFRW6U4uFxQqXoACWIOOS6lgDsPZLgPVcHq1KhoD/5Ef/yADIVgGmNNbDx7Ue8vC2uQIkq7Jtedk8RZmgjp+P37mHOnuj/2ND7F9eLDaieeYSNij7r9xn3jN5G44LqPd5yw8e2OMo0KJYAvGeXFrp1za2nFss4JduuC4uxwIx9blTlbTgosSBMGF8e/ggEFqMAWjaQE3xSaet7enxGmihAdJVXPZFX+DUhikR2OVAmypZy9cKjtMyBSwvvGnf1oHQoHRwtTO5cGQBkCLR589gcIxrFblxJnzZWc8LT/6wQ/WAhf6qnhletq9Iy9gvwbjchlZ9WRa45KUb5i04pK9A8dhTDAEKVJyiQFUCHUChvd1uXMipAZLX6jOyirwDpaAoCULa+dIafISaB/ut3P1KqcDA0dQ3sGtW2Iao3F5/q//qNwzA0OOMFWOAKiQlditbaVx88s7A54ni9f9icEe6CMnz9Dif/xDf6vmF9WbbcnxJijj8bNPisODpk5m7L/ilYVmuthfG4rLTBuKCrvq4kmFGvcbv6/LnXOuNf1lMaldgFkhfL+8M2bykmCnjve1Hb2Dt4cdqKNWTFfjpvI6AUQ4eJ/7dyqGNXcFXV23oGcg3pTyrts1kwCVnM/LibNnaYkf/NCHee99zIFCgKyhS9gHGF81tH2ytYubA7KUJ556loFQhoFx+b2bYRIMLXgd6lXKWawcKsoxknUdK+EoHi8rVtBUZw5bPpQB7EUgIZ7aunJeYx6du3Fy4qDy+bw0eZzZK0NAh6O0rg4OAlfq44IFNsSD+/fvu69iZBXSmHGOy4mz53QNkxiVL1RBdFtkYhbk/j4NC0rVfZo3U2HxbMtCMWVVhtNr9Ba0eWPvhqFT/dR4EiMkq3W5a86Vwgp3V+foquzEyhnfyGxFlDJlU0R4nd9Bg2+uFNoUzcqioqxstMMqoi2JJeXOq1Q1lIXi+NYEtaKh76W+iO7p9eDBg3Jpe0CcF9Q0l4cl06Mzz2BLxWdYLzLzNs98+JX4F8t+++23FBPGM//WcoQYSRSl644QvKxLyQROTm05hSHQOkRwCP7Rx0932m8eIW7fBFZLyLHkWD0+J9lJQczn1MF1nqeBi1//zQ//HcWQ2W6FjgwMQt7H9/39sjmeEa9nH3hebTjHSJ/ZZmftsFRYLixe95MMOAtlSGW8quNYMV7hHl/9/a+rWmnokqHZyl3HoSEdBTVZo8Lo7IHiQlUSG19Pyfbb8xtVkBQYBd5z5rCGTpixArugyg3NhVM7D9xlxkheAlcGa5qQdbz19lvVculBXezAsbv37jnRmpSPvfDx1sdaNnC7nVGA1VzaGiimuW2c07A+1y5YFh+hbpUSituTt3rinm237PVIiw8GpdAjLTerV8RelT/8wz8qO6jqTWblkcdPUTGK+C7BQtgpAxuSYtmCFnjBnLNA4uY51mo7GIAU2SjtJ//tZ4jtoJsnzz9tQTShxWP1Xf1+9soOaSJZR7i7Xxc2tlgIu7i5zdj17OUtBmxULv/rN7/Z2qXRqWTx9CUUyQYMwrB0lFAyO5ayBb0I401F17BJTzlK8OSZudACU6kz2sJxBd/jp59gEgRMHMx2y2j3Gj+Dz8L9spaFZdrVqrznkRNkQ+gszoEwMjMVq9EMFCZTVIhDAoa2EURhXQjqUPjx02drEJWSXMPB9y6ocbCLZbn3+t3yj/7pz1iZ6JOYD2AF2S/6NJjORJWRH4xRIp6WR06ecqKk9j704b+t5HC2y75dwjhdk6GgGdxVE4oR417N8tHfIxIodCrlVAlNVhShV08gzsECFuWpS5sUHgWHEqtdOwEW5yOL3NgZ05Iubw2ZRDEBGk+ZjKFMy1kozFINlXhd3h7wM+rfaB/fMehXvv9Kgxf2swW0ylZoLH3BK16QIC+lQOiXbSiAJBKHke4nY7puWqu4h3iCDPfevdesVK8OQ5Fuz5MkuD/lJmvn1GI82R6xLnfV46v7mhYmUHhwcac0JtfWkr2bBwdlE8FmOiNvRin17/2Df6gB7YzL929/r+LdwcFNdjiFtAMELkNP4INcG/kAWRVgIrV+DyJsIYN0POk9lkZjL8bv4ebqt4SHz+gzGBC8S0oY0YtJNAxR1eiqotusm35rMguk5hpex3EcYfGHhOxAkI73yUBrJIGtnYsJb7grvp975hIHg2omXC7ux06FWaTUkJKvhRk6mbYpKCtc9xJDIDyybZEBCsOYzPsZhvCHvgwAK7tXy8ZAFk5oG401sQIYHI417zvBrJPmjOGpoJiZUIGHPPT+x7TM0ZYfmSXXkNc5mCe+OV6uy11Tf5V22XU7bIpWcwMuwzB1TDAEKwB8vOf4+8vFzR3Cz+3v3y6LhRgKg6gFmgVEUVptm8LurCUTJSk8mT1E6QjUeMf1CcS1rcW8/LUf+TEGZWSkXNkAYQ6wEgIxY7dsT5EUSsiKP7tlNFOhb3T1WtkZ+drJjHENM1JQwsZ4UvtYPbDWgzpYTnzksSMEz5M9mySLanhZE4AwnWSaoXpmMQiCmVZDgEQcoDKrJzWWdO+1e+XmrZvlwRsPnOQ0yAjflqXLmuEVsahGQ0MGzFbqAKWYn//MZzVBjnnU6W755n/7JifnX7t3j3Tz7r275e6dO/yM43y9do8TLPfu4vPdcufenXLnLl6v8lwsM+H8rIt5hN/KpponBp7TP3wHBK/LXRMhtkAOyJpT0AqeNavKC/iMa/GOAho6BabCmfjUfmyld+7cLaPpNXoGXBZZHwQDd3/i6WfLAtTUVqJ19lZshY4WTPMupqLvIQiicEt6HII4XigNtwAcT3YCZ0vF70gUA7m0WNZ/Ml8cL1zVZOulP/gjHevaTJ9llKoVKTYckUDxRm48lsVOuYEIsArG3qDzvWZlMS9/5eHjZbFnCuUACqXszK4zaIE5oLzMCWRMnSHD9EIoMJzPffELlYJBEFhmISvPXAH6maV0jUmkX8JdKQHYfGl7WH74wx9U75FheT1MZUhWpKGwZpp+R1thLekD1gZhdQKMpll1F+SzyLZrH+2sy/0YXSSZY4ReK3qeEE6HXFaIVeg3KQCC5oQz155AWSti5NZIAkZnQyNTf8fvrGuj+jmclPtvvG4m07xLDESvHCP8RBmx4OWq/Nmf/fdy4zvf0aTKdObaeoTW2FgPoag59W1zjPTUNmdAWmllv++x0/QojOX3vvq1cv/+6zWngCLoXYhPUao9bV3unvqL9bSKYW6EG3NpcpZamK82i/G1dvO43uUtFJF2yZuRqChhuUpY0jI+wAESGGGmVpNN64AldMcK3ksvBvbO0vB68603qcjJ9eeYL4BhIcjHQ2W9i3L+mYu8B/py7sIl0kzSTcerUGWwIDAeBNWXv/XyoZj30InHtdptqHZwDrg/lebzsHiAuZG9Bsa8LncmUBBaag19ogIhAkZqpZKD79ask6Voeq1XBD7DgrNYCHAC676yPVRwwtpIzlQpW9SaFq8OeOx0DbJVATSCw4mRjEMwA0Ezfjh2aOnfuBoIzrl9+3vsAywVs2Ajzg2rCEaBc0HtonztpZe0uImGMWW7LJtjIe1iUd5z/ASzaSSNOAdJIOo8t2/ftkwAk62exYmTxRE8PuxDs+yN0dBtmMh40U5XO48wtAS6LeqRhS7pfhg4Jy4wHQjOzJVZ4tCymAlLuLAWKAICA43DnKoyvtzHGSDd2O7r72E4EBAGDyHgvmgPM1FSnvp3584PZaGY353MeH7ajRdBSV/6zd+qU5UwCnqOZ7Pwei8s3hkv15GOJ2W8e638yZ98QxBtuIncco91ubMsTGu3hZPC0VWM852b1TUqhKDmBfEQCqObUkNQJaxkEdAEECPMZ+kAQdDlBNVK5A2wrsx90iAACcD1npUY6zE4tA9hIlPuSxJYQZDgiXFdf/55/gahPnrqCQndC5z0WYwMgR91GbTxsY9/QuM1wzl++oy9ZqLYxFXNk/L7X/8vFRFaoDUKHJVARWiaFRIfhZU0SiilkGoxEC3IVkQ7pWEmM5UNzZmIALux2oC1kZ2BssEdF6MgfBSosrKYOHmNkIHS7927d9mPLDCN5SsGoV9aeZCBcV0lBACWtDOg9+BeSOAwJmA5lWjF0Vu7UrSCb3afqE4PGJv7+kAdxv/IySe8Ohp0WPUdQA6pp2VYjZg4/xfsgWJU75iKtpGY2VjoHKQbkxAanotxdBx7uSjD2XXiedyeFmihcx09sB6uOrtGQSkgjjkAYP2bb95vJencJ0vuvPaFVM+Jn4L2SJZI4SNQY3ZIcQJCERMS7Uub8dwsYRTcIGmDwqUgsZ6WqD188kyFGkAXDGcDa47olV2+getMgY+0eOF3VlEJ7xTEJPjmMmsLhNxpnttPBDiTRZURARSWoSWAcklVNMUGMnnNYOVCGyz+9vdQbsggcL/cUx7IFW+1Fr4qq/mybE/gPSg5u+A1GBsGTYcp7FjiPhV9YXO7nL+4UZ65sl2evrRZzl64WC5c2Sz/+CP/zIrPaghD3GJRHkMGi357QSu864Wf+0RniB0BCGIcGVwd0cVBvavNAVce4J0RvSLi9pweC+TYOpaL8ujJ0zUxAnxA6LRsbFLYwXdsWlBdPqm9aiYjBj15jq3Rio5h4H7ICNMPrOmRtWJ/lrJNshGsAGDQzzIVbzlaLsv/+va36SWMQ86kIUTFHniMlrLQ4zzNGGIB1sWS8nAkxuc4h5cISHA9kCW5rctdq4VpEVkcast2DVsQEpdNYcqNszatOUkmG4YClGBJx+ySmWTA+pWs3NLEh9acMwgjAE+0ZCIWkyIU79vhcdhMEhfumXKBDb9zPftoWt59F8tAQpNtja4q/pOPfrQ8/NipcvzUE+XhU2c4q/be44/TaF555RXVYWBUhiFB3aJsg/oORuUsSh2GVizjqMZiSEo/+ciBozC+pc+LssKKgdQrXCxLjYa4F3bjCK9IrxuqHpJ9Q3MOnPjnALQxHtelgNrKg8kHTJRo+47Ksrvlsy/+ku5Hl22DoKJxvAav5sYJYMT8fa0YDuNoBEBWWynzGjRkYxy+px3FEcEa7veRn/nnLBkgbv3gB69USJb3BdvjAYmPGsu63Eknc1ItF7jBvnM8z52MkHFe5ffmrkq2VuXNNx8ouDphAnaLwYjfq5o5If5zw9lkqkkIsw0pca8qngJmsLILZ11k7Wtb5//G/de9N2tELH78zLnyr174ePnXn/hk+dSnf7588tOfLp958cXy737xxfILL/5i+aVf/uXy73/lV8uvfu7z5fNf+EL54q//h/Irn/u18muf/2L5jd/8cvnZj71QJtc/wDyBuQBKwxhvYJfjdzHPwg/Gq99HWbytmq7a1SYkaA2IW+6Ns9X6SK/0e1OEg6Ct69HTZwgjXO7GwDkr0+vP1dIqjrFK6UCbTlaYM2VlkLMXhLrW+d2cb+MRLK3Kf/7KV7iJIfeHF7A25A1tLB0wmZNhoB8bYFusarYkL96J/nKuFmwphrZmoBS2PYX9t6yOFDwOEqMdSOOSEp54aBN4E2qFo7U524b/ymz/8kOPclCDKXi6llFjSTa+M7BhX1IG07Wt+okzxkOZar67X3WXtacPMw23WpYHr99nrEFdhWxnLK/iJMhgzDI2oQ+BnXEGtSNNipCNmQ5jXSiU8PCJx8vBrZuHmE6opsZseXiJemSB/q3L3Tu70VEvh+7cV9bfsxoVf2pc8Cs3YIc8eHbEmoeVXtreptAvc+XxjLP1oH+AAAU/3DPuqUAmbM1vwvUe9gRtDvzG+RgIz7MBZCxkXmZmseyL2ztaOTFQ7QXC18aHZskxCMWL1g8cJwvsLF5jxjgaPcexdbl3wVWdQ1aqxhHI2o0jjNwgA6zCqDf0Er81rBbnV0D+3u3blWY1oUqAgRl2mL83Dt68z30C7Byqn3tWyEW2prQIRUGQwX/QUn5aNw0B/HxS199HuGiLqMA+x5tFdXMO+rgXmRgtCI9WzLrcj3EREgZqTFXQCGXzimDTS26/dADhYOMdrD/LvV79wQ9J0zBBDGaDJdOEsczyQ5D0CreLQtx87vlPrLe5Wr78W/+xsQ8PUnCYPkWYybI1ucxj1QAkDEzZATpU98d6Glg2imVK6rAkEGwKdSQInzUaJ3radql1Q8D4P/7jb1QPqlvrXb9XX0InRc/TDxjiutwJNbEoLWtwksTNXQpUOCeT1DUGWLtcs7hYltdff420cTDTrm/iI9fHCCc/9vGfKzewedcChbDefOMBXR1CJ9thyq9ghwmU4ydPO5Fr+KlXc++4fh0H3ueL8ql/82nX+Gdc+6mND0jgnDOYj8PCE0SB88DzrDzAOCB0TJIjFgGG8PrurVvNiwJ9HdSkDtS89QiLb7jY3LGyiQ7v20AbvsrC9ssz3BuKmjrqLrKWcHZkiGAD+J7ZppErf3hhcRGyVdBNYv/2oIx3r3umCpuAZ+Xdd9+pjItZtmMS3vtN0HhHYENbLFngGQpmLbg3autkVCxJI6gr4KKOj7pRakvcKAHM9/J0XKM9rxij6kr/4l/+rATOCqnhhnCnVRg0iMjsqOBKAdqSewuqSrBFt+MRgCAHnUNRjPQw9W5WHlWnScASbZRlw+UhfAgAwqCgMDWISp+zXAhgBEaCRGs4YcWyh5DEEEKRYwdg7He/+lXe7+L2QNQRJQvPbu0+91fL9vhqrefsTK7V2TF6gwt7rD5inrguT1QfZfEq+MGYbtz4jpUtD2YpowvCoePo17rcWauJ68eakjVKKeaknStl0Oeeedb0UFwc8MKB1IdBqCzA0sFI52E5HxXip3pohYLKCakqptQAS2RbKBdPZ64jJWCbzxMiW/n66y+9ZJzXoBNwsxlC1+k7YwP2uu7NuVOElhsozFyExwv2BEPBBEuCMFbQabme5gpqUc5wKCNVP9flrh0htmgUvXhzdsKdP0QVVS5QMWquejSD6IQVSUKEs9XwZFYivSQCayG5CNVP5mDxbHugeVfXcWLtUA4LaJ5+ozdgbbwxtM4XdB4Qr4xSJIRW86ksJXVyV1VTj0l7gCsqrAbHxvoQ/Ond8CYsHzGDobwq/AY9NAeAdtblXie7GTh9MRlEOtM9p4vn+AkXLP1mJbCtHhaMBAV4XxOQbGdklVIL+gk3/oySQaCIK4nt2hD0M9sIdNrkBQvDls3mdS5AgcO7QlkterEsJ88/VcsVWu/jFXB98OO4Wz0lNR9acI1tydD1OvPkhVr4w6tNqPgpUKGT3SYPeNW63PUwuLqAqd1A1pGEoDuGjQLzvTrlRSwHI+GCJq1JByyoLCzhC0PBHkblEgIttzcOJUxnkgiqwfPM0QaLEwRRWn7o+ElvRujgMPTSyd7wKuZxpWAochsehsnvWnF1DHMOoHaSuPl7LZFY+Da8U+ef4kQOC4A2rBikgqvKHn1MxPXrcvfmM7ubBZxkgYPBxf0TVBfL8sKnPsWnYqjwJWuNYETB3DE+hUlpOIQA/E88CGWT17TJCyilxgZMNm+1ZRrqj/dNZYAcrBnYYl5evXOnBnSsq4cSKKDJrLwPa98rBC3KF7/0G2X23PO1GNffgwpNwdBjx3Unzj5Zxteeq/T01FNPu+4fhXr1nWmtPOEowVv7YTWqBroG4eicJQrq1JKzNrAoln4ZODW/SmzH/CqwH5sQvGiJzxdw6RdPa2JF0sui6S1epatFoUpawOPfe/zEoUoog2EmZxZz7rbDwJRzqH8f+ehHq1CQkHEXhwM8mBQWWuG8PP9GGyWmXDspjMbyjDwTrRXgcF/ck3tpuUxFM1Cnn3y6Bu5qCIYdKtjLxNflzgd+ajDOCBmE0oDdZamtMQis4M3aPg/slTVnlikzSsFAcmgqwWsZATfwDNRrXBpGAYt4j2ySG8dSNRy3gAjmYW+D0DHQg5sH5dZ3b5WbN2+xT/j83e/eKu+++7Z5uBRNBgV6ubXDpRoYz92798oQa2J28QiA61QMrumhK16kkkosf1mOnzqjaqppLyZEiA4dHAeS08b/BWoMK54t0feUOK1BHlOjTH6cEIFSQftcVDQal4ldm88eI2zIksluTBOhiCvg2WYwehJGe1oSPsNDsDBImIkJdKxh8eSKA7CCtu/P2KEAj4fRyco1tYf4gf7h8V7o//98+WVxdcIelC5FCYba7uzAjb7Lo06cPV/hEVgPSi1BS1m08B4Kbdjrcvc+V7xk8Xqytd0NtA01FtclwCKgQXVUGR0YA0sELP36aXqezNbiTuG1Vh1MGFxFJXVceA/I8hpLPw+Be0gdMGEQ/I1Z5YxcGsKku3umC7QUuYC8S9knrsEaGdzrrbfe6gpXc3oZNitAyTCKL/+n3zbvthF627+mFDMNuF/eT4sPq5lxN3j1TFp+9pDlsY/i8+tyl+DjKnU2yQ9uY8HMCUXHUUXxvFbcE8aYqVddRpaIlya2xxQIV9kaXhT4EAC1xgbZIEoHihGasMiEM/oCiMNOasAD7iEOrZVo4fsIpCwJeDESFIJMElN04fwMnoYBCISeefVaeflb31Isy8S21+Uzlrjez32v+8vy2JnzMi4YwM6gnH7yGec6puEdLDVvOULwKa1yZzej+WFBy+rsDV5Hecn1C2afXpaHAafYlZ1+CJCEoq4MgGO6Bjs0tEZex/XMyayvQRar0qtm6sntcdwFK1JBPNsm20JXWFaih7wpWRuS32cOGEnf3o0bXqiaB3cuy40b2jbKeGZiEahQyt/wG/c5ce684M6wefLcU1KooSYwXWOkZ6TW5c51NWhQHVQkFrXUi2VcsxlqElvb/bxI8W5YqhlLMlNuq4QlelmHi08pC/ApHE6c8uxK1D+I/8ZnPS3EPHuxYFAGTKmCqboO1llicJhkiZXzAXBDrcXH+WgTnoG9rWE68GZ4BzNlLx/He/X4TCHSO5yVOtZgXU2M7dLWdjn95IUqM3F301EHZsXOo8rCBn9ajvcV4SUqhIZc/avCX5ZnN7ApF3uERCFF3yRYWjo9IEKWsKAIKKbyfm5Q8OImlw/oLVAKPIoPaDCVW2LGSJ6iwKbaOQQG62LyxftpzpTTfaa0yZRbsNXKg8QgZra71/n4r3v37jVld/O39HwbJZaBMLhzlcS03MU2TK+qlpwaNQ9MHcnj5Sa6EfHI7k3hu2zQsFaNw0M0GEFNkh16git8HDArgKJyXFiKHdpMZrKYSYE27wiqLCP7+ThiFrKkK1gGQi/ZrVaNwAmBPH150xT3Kqmq1uS3Rx6G1gIeoHQIB9eidNzKFWPuf8pjUARzzdgybvbVK8igYBmtocoYL5RwQLYc1+Wufa5eRF8tO1pOKcGzS+mALABrZ8BqsMEYBbHrti7Xr/0YrC1SRZWASSu9Wlee4vKsK5VgMlKaJlRqrFmtuBS6rjpmNRN1oet0Y2x5J53lknA94SNeJdonOilYm3J1WPIKljYITTvl7quvtg0FKbbFKBfL8v7TT1jgs3Ly/AWxvTzxg0/0y8JV83m/4/d1uWtdTZcsxdK5TJte0Gb8kwJjblHuKCXUJXUutGWWXWVW0zEX4hQ3/JnBKDWN5mVsJyVdT27wWTRWHuih6CKeVbAsT17eYAGN2yNnzqgBTZje85Z5KFuxZ8xAC4aUnCG5wauv3mlspArPK6Xd15QAIqvAcc+c+EqANVqsy/0YdzonUzO+14ZTUq1w41Vk9XcIxezHNC0Wwhu6wMSUuvMYsQpNfvOe7ly1ns591fmVrJVpv2aKrgwEKfO9G+XZLSVj8DYEYeYCWTbIKUVR320X85CrEHrq5IwKcXfu3KkliPQxrwhZwheM4LjQIQxQ8xkxphYvjhC8hCWL1MCzWbYFVQrSgg0M4RUrjvCk+Y5KVStvRaxYMTdo+bjqLPaGeEKYhGvm46taCIXEB9BBRuL6EF+JM3g5x0BugABP+HKJGBaP9uERKS1onhdbM208GXPFeSsihmCrT+DX735AdAhK5zX4fV3udSsOA6kfM1U11mVyEpjr2V5d3AKIH5ZjSnWoaGRPOaSo1LjxsqJSHcx9pRyVatEHUsTNbT7GStVQxYNnNrcUJ8hkFOBxnGUCT9GB1iL+sKA3wCNyD0gMULAj+8Iere4pgxq/hCcLjjLSJwjf3uqc4JBHoKaVcdmQ1+XutZNKGnATajUYbE2zgTqpbFixldYqZpIOBmdZTBVuSqv+VxdRRNrje/YLmUlggHlYETD5Lz30PmH3zMW1bTELKaFl0LFq8HV8R3USeQafMjWA8nbI2uAJelqHHv9S+0kPbIbWhN5DZhtn4DkGS5l5TDFayGpd7lofb0tu+1jbbjgGj7UJEUbuhR6iQy/wLBWeTxarzQQwFZPr7Xa4V36ngutxG0DuFWijMvotnupzLBCDRwEMVs1J9MAP6eOgZsasovKhdmJsByAFfkQuCYG9js8zzoo5C7hnO+pbPLOtqG5GZsONlxwVXCXkhum05giX2vO6RLMcrRP3wLvAC4uv3NfH+KA4B18FZj/9I2suKXQNIE+3Do+mi/fL4wJVnrCB8Ji0dM8JZqHM9XVYd3YcKp8Qi3m3vKMHL6Mte61KDt5cl8eS83cJNuMi7NW+CedRltDTQzKXYSt3kA2jW5c7n6aNHzIFSCq5rgRbXhKoHNO295YoiBH44WkOjsro4gkSWBIzHksOAfc2zKjjYUre+WeFypLs0p6gCSziWlh9HqXFiWkndoCkn/j7P137ESHFSGp/KCz3yV6JvmS+QtfHwiXYyA1j5v8zoXdmFYPmq9fl7szV1C3BlEJYm4eNIDzbI4sXLEiQnUAMAwy0jg2JGym46eEO+k0DtivnWs8UJVjRyjxYfnYwJyPyGPicNDzczQmcavZ6Xg3+uUuW3Ykmx7Bs3fUd97CQK4T4twjXltwrTH1G+6nxdMePEnzcnVZdcVa7t7WGMpjmp2v7O92Two5yLIBsyXHn9ASmhoHNWqwoY6KemyDvy2xTxXFet/5Qf71LCRIoPjfOnfEYGirF1efkERKejA7LETUuCZHXV+Nrmaw8Pxi/Pi6/ghgmK+tyrztCiG8eIAfbPX8lHaAg6vK+VO0alql+3a2PtBdA+BFI/oVoaCaDFjc+tGStZrFVMBZeEiwPOo9urIMMs7AyBX+yXNI6Lrp1sIygPIZ6b1dmlWfk+OF7MIvvpkdrpm5ZxqsjdLSzLvc6EZK5zAwyg67RPa6OG3YP9OTAOgvOY87ZpgNhddkERNMsCpA7yBU7JERbWAYZRuRXgwoooVHcMKMIok04d5ZZleg1L44v1Vp9T2XnYnYNQi0Xb4BoK57VB8Gyc6J6P/f1qODadygBSpZu4SeIuRH8zn9tEWvry8YWdKz/kNVy4VAHXWY2slzvtZ1LKBH2YaE1RcsL83A3KUMD9gZpVjRb+6mPp81YKn7Tjr1sMrMRYhz5Zy8+L2Pk9yScvZFaMUkuo6T9/Ztse13uXLTahCMrjPCr8AIvnSBjJaJ/+L11MAGKcJU6dQYQ6wpz6DopiLIB2DIzQPQnOF4ZGM5h8Ha2HAgMPEJwXXttjN62E6t1sFcy2MYfAUZp+J0cvwq6iyXpl8+L0cX61+XO/5jQ42KwN6whF6qeokZreu/6hYSn/xbZMC7KiWU0z9BCT7VD6mlrrtc4QEMx/JdG/i3n9m4ugTtOUFFSEF74TRm5jzn2oI9Uoo0sk/hSsh8xkHFn7tnCFmanZBDDzKYLTY7nfBidZHWE4ImJwalgceXGPVTE6pqwZC3BSVlDhJgHNwRD9VAGZ4jZKVjxu7N8CyYFKd0bx12AiyWnfaf1CurOG5Kq+/65B+mmIQHv6qOU1YTV7qu+WB68p6HE/dTY/B+dU9OqyZaoZc5dl3v9J4uBAOFl57ZxKXZA51WLT8fsnrLUbuB+ibq57tEHs1DXPM7csMS28h81wyjskbiewa/DYZYrqkcFw+WdPZTWzx0kSkDxlMOG1t+/CtvykeA1RyFS4TZrbqIxJNNdl3tbH1/rEa3kGTepHbW1qVNNy7IaC4iD69hRxUK7tq2PVKsLXBSAq3q6puPetDYLpcNhKSTQEaMJVMVyNabaD7RLnG7JXoQvzw+JMNxWsmGmU7PwzuI9Vn03dFbj+osEb7er9M2aqoMLi6CQWtGIA+k4vKy+61D9l84WlgdGzM1jbumSDr5dR9Me2ql8u3d9GwUhz55B6/WukGZ9ttZqgVGWMF6KaQqK0AN9UbquN5W05+kfg9lA4xW4d80DAnMa57rcvTEhgta/bQ7W8ZiFq33+Oh5h5rnACjjNKvG5r+v0bp9jErytunNVJVreMFDhzzBQaZwH3Lt1mE0dsNpEe4ImCb6HkrqOKPmF2Y2E1YxPBEIWz/vlWZWG5Hpv/6b7NKWj7+tybxsTjNuyhMPJB5VQLcAsyBkfb+joHSHINW0l3efASCyOg+8eLZK+ROnCfBft/F1taJCBpvrwoA4ykmdU5VXYEcw1r7UiGC/aeVJGC9qSR4ygTX70qCBP1TgO4m32tHW5c0FTODa16yelovLYqGILwLRcWoQfj2X87YNQNJ0BV7erQlBbVTG+Tyy1Xsc2m9UnO0Sf5REyGH629RHOMiPkfuOVdS84V0v1MuaG0ZlfCPzS2/NPFLvYk0d29cqr/aiUU56w3JcRrcv9///9P/7739/VQueBHA4DAAAAAElFTkSuQmCC;" vertex="1" parent="1">
          <mxGeometry x="40" y="640" width="101.74" height="99.57" as="geometry" />
        </mxCell>
        <mxCell id="S_wav586HDDoZmovN5GA-9" value="&lt;font style=&quot;font-size: 14px;&quot; face=&quot;Tahoma&quot;&gt;&lt;b style=&quot;&quot;&gt;Resolution Vault Bot&lt;/b&gt;&lt;/font&gt;" style="text;html=1;align=center;verticalAlign=middle;whiteSpace=wrap;rounded=0;fontSize=11;" vertex="1" parent="1">
          <mxGeometry x="123.74" y="463" width="190" height="30" as="geometry" />
        </mxCell>
        <mxCell id="S_wav586HDDoZmovN5GA-10" value="" style="whiteSpace=wrap;html=1;aspect=fixed;" vertex="1" parent="1">
          <mxGeometry x="161" y="503" width="210" height="210" as="geometry" />
        </mxCell>
        <mxCell id="S_wav586HDDoZmovN5GA-67" style="edgeStyle=orthogonalEdgeStyle;rounded=0;orthogonalLoop=1;jettySize=auto;html=1;exitX=1;exitY=0.5;exitDx=0;exitDy=0;entryX=0;entryY=0.5;entryDx=0;entryDy=0;fontColor=#00CC00;fontSize=12;strokeColor=#00CC00;strokeWidth=2;" edge="1" parent="1" source="S_wav586HDDoZmovN5GA-7" target="S_wav586HDDoZmovN5GA-21">
          <mxGeometry relative="1" as="geometry" />
        </mxCell>
        <mxCell id="S_wav586HDDoZmovN5GA-7" value="&lt;b&gt;&lt;font style=&quot;font-size: 14px;&quot;&gt;Issue Description&lt;/font&gt;&lt;/b&gt;" style="shape=ext;margin=3;double=1;whiteSpace=wrap;html=1;align=center;strokeColor=#00CC00;" vertex="1" parent="1">
          <mxGeometry x="203.5" y="640" width="125" height="50" as="geometry" />
        </mxCell>
        <mxCell id="S_wav586HDDoZmovN5GA-6" value="&lt;b&gt;&lt;font style=&quot;font-size: 14px;&quot;&gt;Case ID&lt;/font&gt;&lt;/b&gt;" style="shape=ext;margin=3;double=1;whiteSpace=wrap;html=1;align=center;strokeColor=#B266FF;" vertex="1" parent="1">
          <mxGeometry x="198.5" y="533" width="130" height="50" as="geometry" />
        </mxCell>
        <mxCell id="S_wav586HDDoZmovN5GA-8" value="" style="image;aspect=fixed;html=1;points=[];align=center;fontSize=12;image=img/lib/azure2/ai_machine_learning/Bot_Services.svg;" vertex="1" parent="1">
          <mxGeometry x="298.5" y="453" width="72.5" height="72.5" as="geometry" />
        </mxCell>
        <mxCell id="S_wav586HDDoZmovN5GA-15" value="&lt;font style=&quot;font-size: 14px;&quot;&gt;&lt;b style=&quot;&quot;&gt;web app&amp;nbsp;&lt;/b&gt;&lt;/font&gt;" style="text;html=1;align=center;verticalAlign=middle;whiteSpace=wrap;rounded=0;" vertex="1" parent="1">
          <mxGeometry x="470" y="10" width="70" height="30" as="geometry" />
        </mxCell>
        <mxCell id="S_wav586HDDoZmovN5GA-11" value="" style="image;aspect=fixed;html=1;points=[];align=center;fontSize=12;image=img/lib/azure2/app_services/App_Services.svg;" vertex="1" parent="1">
          <mxGeometry x="800" y="463" width="58" height="58" as="geometry" />
        </mxCell>
        <mxCell id="S_wav586HDDoZmovN5GA-20" value="" style="rounded=1;whiteSpace=wrap;html=1;strokeWidth=2;strokeColor=#B266FF;" vertex="1" parent="1">
          <mxGeometry x="425" y="526" width="150" height="64.5" as="geometry" />
        </mxCell>
        <mxCell id="S_wav586HDDoZmovN5GA-18" value="&lt;b&gt;&lt;font style=&quot;font-size: 14px;&quot;&gt;Case ID&amp;nbsp;&lt;/font&gt;&lt;/b&gt;&lt;div&gt;&lt;b&gt;&lt;font style=&quot;font-size: 14px;&quot;&gt;Process Module&lt;/font&gt;&lt;/b&gt;&lt;/div&gt;" style="text;html=1;align=center;verticalAlign=middle;whiteSpace=wrap;rounded=0;" vertex="1" parent="1">
          <mxGeometry x="418" y="543.12" width="170" height="30" as="geometry" />
        </mxCell>
        <mxCell id="S_wav586HDDoZmovN5GA-21" value="" style="rounded=1;whiteSpace=wrap;html=1;strokeWidth=2;strokeColor=#00CC00;" vertex="1" parent="1">
          <mxGeometry x="430" y="630" width="140" height="70" as="geometry" />
        </mxCell>
        <mxCell id="S_wav586HDDoZmovN5GA-19" value="&lt;font style=&quot;font-size: 14px;&quot;&gt;&lt;b style=&quot;&quot;&gt;Issue Description Process Module&lt;/b&gt;&lt;/font&gt;" style="text;html=1;align=center;verticalAlign=middle;whiteSpace=wrap;rounded=0;" vertex="1" parent="1">
          <mxGeometry x="440" y="650.07" width="120" height="30" as="geometry" />
        </mxCell>
        <mxCell id="S_wav586HDDoZmovN5GA-26" value="" style="sketch=0;html=1;aspect=fixed;strokeColor=#BD7000;shadow=0;fillColor=#f0a30a;verticalAlign=top;labelPosition=center;verticalLabelPosition=bottom;shape=mxgraph.gcp2.gear;fontColor=#000000;" vertex="1" parent="1">
          <mxGeometry x="493" y="388" width="62" height="62" as="geometry" />
        </mxCell>
        <mxCell id="S_wav586HDDoZmovN5GA-28" value="&lt;font style=&quot;font-size: 14px;&quot;&gt;&lt;b style=&quot;&quot;&gt;DFM/ICM API&lt;/b&gt;&lt;/font&gt;" style="text;html=1;align=center;verticalAlign=middle;whiteSpace=wrap;rounded=0;" vertex="1" parent="1">
          <mxGeometry x="430" y="330" width="130" height="80" as="geometry" />
        </mxCell>
        <mxCell id="S_wav586HDDoZmovN5GA-30" value="" style="endArrow=classic;html=1;rounded=0;strokeWidth=2;exitX=1;exitY=0.5;exitDx=0;exitDy=0;fillColor=#6a00ff;strokeColor=#B266FF;" edge="1" parent="1" source="S_wav586HDDoZmovN5GA-6">
          <mxGeometry width="50" height="50" relative="1" as="geometry">
            <mxPoint x="355" y="557.5" as="sourcePoint" />
            <mxPoint x="425" y="557.5" as="targetPoint" />
          </mxGeometry>
        </mxCell>
        <mxCell id="S_wav586HDDoZmovN5GA-71" style="edgeStyle=orthogonalEdgeStyle;rounded=0;orthogonalLoop=1;jettySize=auto;html=1;exitX=0.5;exitY=1;exitDx=0;exitDy=0;strokeWidth=2;strokeColor=#00CC00;" edge="1" parent="1">
          <mxGeometry relative="1" as="geometry">
            <mxPoint x="773" y="594.5" as="sourcePoint" />
            <mxPoint x="735" y="664" as="targetPoint" />
            <Array as="points">
              <mxPoint x="773" y="664" />
            </Array>
          </mxGeometry>
        </mxCell>
        <mxCell id="S_wav586HDDoZmovN5GA-103" style="edgeStyle=orthogonalEdgeStyle;rounded=0;orthogonalLoop=1;jettySize=auto;html=1;exitX=1;exitY=0.5;exitDx=0;exitDy=0;entryX=0.5;entryY=1;entryDx=0;entryDy=0;strokeWidth=2;fillColor=#fa6800;strokeColor=#FF8000;" edge="1" parent="1" source="S_wav586HDDoZmovN5GA-31" target="S_wav586HDDoZmovN5GA-98">
          <mxGeometry relative="1" as="geometry">
            <Array as="points">
              <mxPoint x="880" y="558" />
              <mxPoint x="880" y="970" />
              <mxPoint x="268" y="970" />
            </Array>
          </mxGeometry>
        </mxCell>
        <mxCell id="S_wav586HDDoZmovN5GA-31" value="" style="rounded=1;whiteSpace=wrap;html=1;strokeColor=#00CC00;strokeWidth=2;" vertex="1" parent="1">
          <mxGeometry x="713" y="526" width="120" height="64.5" as="geometry" />
        </mxCell>
        <mxCell id="S_wav586HDDoZmovN5GA-32" value="&lt;font style=&quot;font-size: 14px;&quot;&gt;&lt;b&gt;Data Cleaning&amp;nbsp;&lt;/b&gt;&lt;/font&gt;&lt;div&gt;&lt;font style=&quot;font-size: 14px;&quot;&gt;&lt;b&gt;Module&lt;/b&gt;&lt;/font&gt;&lt;/div&gt;" style="text;html=1;align=center;verticalAlign=middle;whiteSpace=wrap;rounded=0;" vertex="1" parent="1">
          <mxGeometry x="690" y="543.25" width="170" height="30" as="geometry" />
        </mxCell>
        <mxCell id="S_wav586HDDoZmovN5GA-41" value="" style="edgeStyle=segmentEdgeStyle;endArrow=classic;html=1;curved=0;rounded=0;endSize=8;startSize=8;entryX=0.5;entryY=0;entryDx=0;entryDy=0;strokeWidth=2;strokeColor=#FF8000;exitX=0.842;exitY=0.558;exitDx=0;exitDy=0;exitPerimeter=0;fillColor=#fa6800;" edge="1" parent="1" source="S_wav586HDDoZmovN5GA-26" target="S_wav586HDDoZmovN5GA-31">
          <mxGeometry width="50" height="50" relative="1" as="geometry">
            <mxPoint x="560" y="423" as="sourcePoint" />
            <mxPoint x="572" y="373" as="targetPoint" />
          </mxGeometry>
        </mxCell>
        <mxCell id="S_wav586HDDoZmovN5GA-42" value="&lt;font style=&quot;font-size: 14px;&quot;&gt;&lt;b style=&quot;&quot;&gt;RAW Case Data&lt;/b&gt;&lt;/font&gt;" style="text;html=1;align=center;verticalAlign=middle;whiteSpace=wrap;rounded=0;" vertex="1" parent="1">
          <mxGeometry x="570" y="370" width="130" height="80" as="geometry" />
        </mxCell>
        <mxCell id="S_wav586HDDoZmovN5GA-72" style="edgeStyle=orthogonalEdgeStyle;rounded=0;orthogonalLoop=1;jettySize=auto;html=1;exitX=0;exitY=0.5;exitDx=0;exitDy=0;entryX=0.983;entryY=0.363;entryDx=0;entryDy=0;entryPerimeter=0;strokeWidth=2;strokeColor=#00CC00;" edge="1" parent="1">
          <mxGeometry relative="1" as="geometry">
            <mxPoint x="619" y="663" as="sourcePoint" />
            <mxPoint x="567.6199999999999" y="663.4100000000001" as="targetPoint" />
          </mxGeometry>
        </mxCell>
        <mxCell id="S_wav586HDDoZmovN5GA-76" style="edgeStyle=orthogonalEdgeStyle;rounded=0;orthogonalLoop=1;jettySize=auto;html=1;exitX=0.705;exitY=0.009;exitDx=0;exitDy=0;entryX=0.274;entryY=0.997;entryDx=0;entryDy=0;entryPerimeter=0;strokeWidth=2;strokeColor=#B266FF;exitPerimeter=0;" edge="1" parent="1" source="S_wav586HDDoZmovN5GA-20">
          <mxGeometry relative="1" as="geometry">
            <mxPoint x="531" y="502" as="sourcePoint" />
            <mxPoint x="530.988" y="449.8140000000001" as="targetPoint" />
          </mxGeometry>
        </mxCell>
        <mxCell id="S_wav586HDDoZmovN5GA-79" value="&lt;font face=&quot;Tahoma&quot;&gt;&lt;span style=&quot;font-size: 14px;&quot;&gt;&lt;b&gt;Web App&lt;/b&gt;&lt;/span&gt;&lt;/font&gt;" style="text;html=1;align=center;verticalAlign=middle;whiteSpace=wrap;rounded=0;fontSize=11;" vertex="1" parent="1">
          <mxGeometry x="770" y="433" width="140" height="30" as="geometry" />
        </mxCell>
        <mxCell id="S_wav586HDDoZmovN5GA-80" value="&lt;b&gt;&lt;font style=&quot;font-size: 14px;&quot;&gt;Generated Issue Description&lt;/font&gt;&lt;/b&gt;" style="shape=ext;margin=3;double=1;whiteSpace=wrap;html=1;align=center;strokeColor=#00CC00;" vertex="1" parent="1">
          <mxGeometry x="610" y="640" width="125" height="50" as="geometry" />
        </mxCell>
        <mxCell id="S_wav586HDDoZmovN5GA-83" value="" style="shape=flexArrow;endArrow=classic;html=1;rounded=0;strokeColor=#00CC00;strokeWidth=2;" edge="1" parent="1">
          <mxGeometry width="50" height="50" relative="1" as="geometry">
            <mxPoint x="499.5" y="700" as="sourcePoint" />
            <mxPoint x="500" y="760" as="targetPoint" />
          </mxGeometry>
        </mxCell>
        <mxCell id="S_wav586HDDoZmovN5GA-85" value="&lt;font style=&quot;color: rgb(51, 51, 255);&quot;&gt;&lt;b&gt;INPUT&lt;/b&gt;&lt;/font&gt;" style="text;html=1;align=center;verticalAlign=middle;whiteSpace=wrap;rounded=0;" vertex="1" parent="1">
          <mxGeometry x="163" y="503" width="60" height="30" as="geometry" />
        </mxCell>
        <mxCell id="S_wav586HDDoZmovN5GA-89" value="" style="shape=image;verticalLabelPosition=bottom;labelBackgroundColor=default;verticalAlign=top;aspect=fixed;imageAspect=0;image=data:image/png,iVBORw0KGgoAAAANSUhEUgAAAFUAAAB8CAYAAAAYVvykAAAAAXNSR0IArs4c6QAAAARnQU1BAACxjwv8YQUAAAAJcEhZcwAADsMAAA7DAcdvqGQAACoBSURBVHhe7Z0HeBRlt8dVOqSQhKIgEEroXXrvkFAVkBY6CqLSREEBQRAQ/QQFERuCFOlFRVD0k94CSFW6tARI6IH0hHOf35mdZDPZJAvZe+H6MM9z2OzM7Dvv+5/Tz5nhCUllS0hIkJiYGOvuFFtsbKzExcVZd6fYGOvevXvW3ck2jl+8eDHd81x5TWfXyTjXrl1LdzzGeoKTHFF8fLxER0frRa3H7IlBWKR1v5WcGYvjFy5cSPc8V17T2XVy/OrVq+mex1hPsIjU6Pz58yn2WcmZc+7nvFOnTqXYZyVnx3L1ef/8849+Ik2pEWM9gRg9SgQXWvc9SpTepuJv/dFjSp1QFeltj0G9T/p/AWp4eLjqISby119/6XcU/bFjx/Tz1q1bcvLkSYmJjpGoqCjVt3xax0mPAMNK1nOcoQyDygBYuoT4BONTiX1J++MTv8dLgm2yHGO/cSz5b+Ihc1Hx8XL48GGZMmWKXL9+XVq0bCn79++XdevWSePGjeX27dsyffrHMm7cOLl79678+uuv0qFDe/2bcRLnkWxu9t+TCKts3R4EWNeB6nDCyY/Zg2gs2Hqu7Zz4eDl3/rzs3r1LYmJiZcvWrVK3bl05dOiQFC1aVAYPflUqV64iZcuWVQ6uVbuWjBkzRr777jt59tln5fM5cyQyMtLuZlqvZT+3pOOPDKhQygnDaTaOswJr2598ccY5hjtyRi/4888/S4GCBeXgwYPyzTffSM6cOWXMO+/oZ7Zs2SRLliySPXt26dChg+TIkUMaNGggTz/9tHh5ecmWLVvkzt07snfvXtmwYYOOZ52fI3p0QI0HVAtHJFMFduLPfhuZgMfFxaouZKwtWzZL9+7dFdwVK1ZKjhw5pVGjRlLtuecUTA8PTwXT3d1NihUrplyZLXt2PVaqVCnd5+dXQt5991154YUX9PiMGTMS3a9YU7Is8zMoPtExt98eKqiGGrABa5u0qdP0UxdjE31AtQF7/fo1mf/dfAkNDZXr165LwWeflVatWklgYKBkzZZNqlevLitXrlJw8ubJI+XKlZP169fL2bNn5eiRI1KkSBEZMWKEnDt3Tp3uX375RcqUKaPc/Morr6h6IGz8448/ZMF33+lNTAmoMU/zb3tgHwRUCNDSIgxpqqAm16npk8GhJvDxqvvefPNNad68uSxfvlxKlCghmTNnVo7MmSuXBO0JUms/dswYCQgIkKNHj+qkuC5g1a9fTz755BNDh9oAWLNmtaqBylWqyEsvvSTNmjWT+vXry759+/S4dU5WcgWo1jGtlCanJuNQi/40P5NATE7cLaz3pk2bxNvbS3Vknjx5pGrVqlKvXl01RJ9++qns3LlTuffIkSM6GbXyGzdKu3btpEKFCno+3BsREaHjAnDDhg31BpUsWVLVwo4dO/S35AK4bnRMtM1wppxXRkHNsPg74tSkyRqf9i4Vv2FRDHr4yGHVfZs2b5LGjRpJvnx55ffff1eRvXLlipw+dVomTHhPVcD3339viE10lHw771tp3bq1GiLUwKpVq6VsuXL6HRcsOipK+vfvLx2ef17y5csnL7/8kvz444/qlj3//PPSpk0bWbx4sQJsnfsjAqojVrcYLrv9/OaLL76QDz74QHbt2iV+Jf2kdJnS6iqtWrVKOffoX38p5/32229qveG2AwcO6EQWLlwoLVq00CAAUHD+t2/bLhUqlFf/lfF3794t9erXk2HDhyn3m+Tu7q6GcMOGX1R18FvOt87zoYOKoUopQo4ANQhO+vvvv1Uk27ZtK88995xkzpJZcufOLZs2bZbFixZL9WrVpHfvXtIzMFBF29fXV4KCgiTs6lWpUbOmOvqIOl7CooWL9Pi0aR+oWiDtBhd36dJFXasmTZqofs6UKbPq1s8++0y+/fZbmTdvnqxYsUKu2dJ0jxyo1kk5IhN4VAHiz8J88vhI1mxZpVKlSvLKoEHSpHFj9Te3b98uEZGRSj/+8KMUKlRIPv74Y9WV06ZNkx49AjU0PXHiuIp3uXJlJSQkRMedOGmSvPzyyxIWdlXnd/r0aR0TTwID6ObmJuXLlZNXBw+WZcuW6TjJ52q4Vub2UEBlAKszz35ESw1CdLSKqal7OTZ9+nRZuWKFdOrUSV2fAQMGyK2bN5WrAA8uRA3cvHlTgZzxySdSoGABjenh2I4dO6rORRXkzZtX3n77bblz545KAGqkRAk/2btvX2L8f+bMGfVZEf+ZM2fqb+HqqKhInR8LxNUyje4jAKrBqQzEBHfu2Cnjxo5VwHCTiHhGjhyp7tLVq2Fy4/p1WbJkqVr50qVLK6j58+dXP3PChAnqa3ITFi1aJB9P/1iBIXGCf7pnzx49D/Emybt161bx8/NTUQ8ODlagtm7dIrNnfy7t2reXd955R3Ux+8uXLy+enp7y4osvyquvviqj3npLObpHjx7Sr39/mTxlimzbtk1vIusxt4cEquH43759S2bNmimFCxeSSpUryeuvv6bG6LXXX5caNWqomCKGVapW0aQIoLKvdu3aUsTXV0ExDQefcHOvXr2UY/l+5cpl5WDOq1evnlp6wBo9+m0da/bs2RIba0ROkZFRCjhuFaDevnVLA4KnnnpKsmTOLE8/nV9v9uTJ72sIDKczZrFiReWrr75Srje59UFBNaOz1ChNUKHb4eHy+uuvK6BffvGFchEOe2RUlHLdjRs31BdFbAkrn3zqKXnyySflnTFjVBcG9ghUEUWHElnNmzdfKlWuLD4+edQNAhhyASy4d+/eUqBAAXXmf/llgwIAp40YPkK5jBTg2rVr9QZg4WNiY+W///2v+Pj4KKgeHh7Ss2dPvQ4q5/ix4/qbsLAw+fbbuVKwYMFk7pZ1rc4SoKVFaUZUHPzwww+lcuXKsnHjr+qsw5EVK1ZU14djcBWLZCGjRo2SwoULS6ZMmfQ40RAuE+qiS5eu6kcOemWQtO/QQby9vZULS/j5yWuvvabcBZik/WrWqKGAw8Vj3hmj3AaoiHDx4sXUEOJa4aZhmLJkyayg+hbxlVdfHSyjRr0lXbt0kSaNm0jFihWkd5/eqma+/PJLqVW7tupdsxp7v5Qh8eei+IYkMfA95347V3OZCxcskK+++lJ1K6EloBGf48J8/vnnGik99eRTGvEMHjxY9SUEh+EScQOwygsWLJCixYrKkqVLlCP5ThRFcADHLlu6VCc3ZMgQGTDgJQkJDpG5c7/VBAtWnrwAbhu6s1q1apItazbNaHEzSCMGhwQrh5KvfaFjRxk0aJDqdM7FBkRH33+iG8oQqBzYuHGj+Pv7q8ij9Mlpcpf//PNP5aiFCxbqovL4+CSm7eBSxH/s2LFq4VkgcbnpKRw5fEQtPTqzT58+snnzZj2Gwx8Y2EOvhbGBG9n/n//8R2rUqCl16tSR/PmfVo+Am8WYJLa5SfPnz1cVQN512NChmm/44os5mltgDiGXLknjJk1UHaHL+T3Xt67ZGcowqEQ9TJjJd+7cSRYuWqTWHsOBHwjIb7zxhvqiuXLlksyZccQzqSgOGzZM7twJVwPDWIyJ/sVoBAS0lovBF6Vr166a4b98+bKeA1fBTaiYnr166sLR3wQCgNi6dYB88skMuX3rto7HTUItMCc8hSlTJqvxQyK4cSTAMVaM0blzZ2WGd8eNk9q1asmt27dSrNkZcgmo33+/WMXz3XfHycSJEyUiMkL9PvtzWTw+5tgxY9UqZ82aVXJ7eckrrwyW8ePHS8cXOqoxQ0fv3btPSpYqpSphyOuvqyVnP5NFL7/11ltSt24dBR5g1/+8XpMuXOP8uXN6DmCiy4m+8D4wULVq1dKbvHvXLjl48JDs2L5dli5dqu4boJKHwGi999576pUAvnXNzlCGQd3420bp/GJnFSF0HTrs1u3bDpIVSckUrDIJDjJMOXLmUCN3/PhxPcbv4Eb0WlDQHgWK68BtP6/7WZMrqJtTp07KiRMnpESJ4lKqZEkpXry46nFuLuLODWR8xkEloE8JhRvC4T17yoD+/WXcuLGqUhgbgEm0EAr369tPVdZDEX8AIKTEUJEEZjFz586VwMCe6k9agWXBn346U4YPG6HWnrifKGfG9BkKKMZpzZo1mu1fuXKlGgrGxIrjtD/zzDNq5YmcsPKINCUWOBIjx+84r1u37lK9Rg01lKgFjCORFhEYOhOwAJJr8okkYPEXLFyg+h1Dunr1as2IWdfsDGUYVIBo166tukcoe0RmyNAhGs2wADU+tvP5Oyw0TP7++5jMmvWZLgQ9O3nyZNkTFKQJD3xQLDzjcmEsNVYc64wI161TN9Gao2+5BnUs8gDcSIzalClTZeiwYXLxglHWRr3ApSRnPpw2Tf1eAA0LC1XfF/0MiIyDqiCThe9tXa+zlCFQTcJwAAg66cjhw8qRH330kYaP+K14CEF7g2Tfvr3KVXAG4j9u3LuSL28+KVyosHTr1k05C6uLO8MNw5hQRSWBzcIxdrhEgwYNFP9W/nqN7Tt2aNoPgssATJ3+mBjlcrJR3BTUBuUVoj64mhwD4GFEARNQMYioFtQK68qI858ewWCpgmqGqYgkyr1K1aqaJ0XHkkAGVESdZAmTbtS4kWbxSSLPnv2Z1pRatmipbhB+LFEWoAIKoAb26CHDhw2Xn376Sdq3a6/BAH4vItq7dx911vktWSjEH8PFDeamoRvd3N2lW7euqjvXr98gc+Z8rgEH4zFnPAZ0LMAPHzZM551Ux7r/ENUkmCItShdU8+Jnz51TJx/dh7vEhBFjdBifTNj8DgWHhMiqlSuldUBrjZ4KFy4iNWvWUtDxRV9/7TUZPWqU9OwZKAH+/vLN19+oeMP5kyZOVC7G7yS0pDyNjuYGvjFihLRs2VJFnpAYwAAbML+bP1/dvdGjR6lh4uZ06dpVb+7NmzckTu1AUj7Yul5nKMPib4Bqy5XGG7lSXJRmTZtJseLFpEdgoBovfFa4B0OEwXj//felTNmymqFi0YSg1atVF7dcbpqlh3vq1K6tVhodS26AiZiSERMTLevX/6xgor8vX76kYr9kyRKVChx8xiZBTTKlSuXK0r1bV1VJXKtrl67qrqHLUVdwT9JabJ8PkEwxMUlvSxNUR0lqBmWBqAF8vpo1a2qmnww9hBNOjN+je3eNqnB/Vq9ZIyNHvik1qtcQby8vjbzIYvFbuJZrKeewUAXWcOmmTJ4iM2d+qvpT62HxceraNW3aRDzc3VVH44sSJaGKbt66qcYUSaGWFWMLPACVcZOB+rA41RGo5sQYnHPQH+hHbZo9f15VAIsAcFQFTnmL5i1UHCGaJ1AHWbNkVeNyN8Loi4LwZ5ctX6YZML6fOX1aDSTRkVlN5ZqrV63Sm9K+fXtN7lBhKFeuvEZmHMeXXrV6tbpoJGvIXXAzrMCmWK8TlGFQUy/8WbjXxsH2BGBk9OvXqy8DX35ZOYmIhwUSmaEWJoyfkJg4VhD/+UfF3lAFCZpEqVWrpkz9YKqm+LRmFh+vUkJg0KlTR805oAqQElQQNxQ3iwwVqgpvoF/fvpq7gIvtVZp1vc6QC0BNKTJWMO0/TWJhffr2kalTp8rSpctkzpw5MmTIUHWdymHZe/WStm3baDMEOi9xPMuNIUtGdsn0a439cdr9hwErVLiQVgrQ6ZMnT9EaF5JDlbZp06YqGXgVAIv/S/VBJcPOAN8vuQhUU7FbwbQ7ZiHEjEVQ4nBzc1fH3svLW0aNGq2+7MCBA9U/LVasuKoNBcz+ZsXHq17EKOHAm7kBcz+BwejRo9UwEiCEXQ3TKK17j+7q9FOrAlTyCx07ddKIq1z58hruEq1Fk+B5WIYqPs4xaAZZi4LJCRGEU1ggaUL0JVl3FutXooT2PmH5KUuTMDEtNIuFeylLAzxBA94BwJ44cVLTehjGSpUqauRVo2YN9W3xKtDhjE8+dvyECdpZiPu19oe1GgC8884Y9afxYWNjHkKS2hzAAM+qBuw/7YFP+vuHH35Qn/HMmX8U1IYNGirHVq1aRQ0NYp3b01P9zzJlysqbI9/UwIBUXe06taVVy5by28aN8vzzL0jZMmWkUsWKUrlyJeU6wCSb1TrAX6pUqaLhL4CSvOY7XgPXHPzKYGnRvLkcPXJUvQQ6YnDRyLyZNbMHIUBLi5CmdEBNyYUpyEEvFc1mz1WtqpVOEsje3j5qiXHE/Vu1ksqVKmvW68TJk5q5+m7+d6pjiaCaNmumaTr8U4KFKlWqKijU+eH2mjVrKJEjJSGD7t2/b7+qC24S6qFe3XqqyzFYkyZO0lCZnitAxZc2S9z3S0gUnkhqZAZDToGaJOpJ3GntCbAHlwv06d1HLTMOOcaEKmrxEsVV140YPtzoRrF19HE+VVrifwqI9FdNmjRJrTtOPr6omYFCn/br10/9XLiWNqILFy5K48ZNZPv2bboo2jNRA2S13h79ttbPyE/glSARDwqqC8Q/NZcqNQ5OUgtcnFo+Tj9cRuyO+Pt4+8jMTz/VEJIqqmnVyUThFj2VKZN2mwwfPlzy5c0rmbNkkSeffErFG+6FU+gQLFuurIwaPVo7XOBubhxJFEBHLxvVis4K/McfT5c//viv9ia0adNafl6/XqKiHkz8XQBqauDZyK57OsWxhAS5e/eOcgbJasosxOszZkyX9ya8p2LKwtU4xcWp2+Pu7qH1Lc4lKcNNAGD2wa1wpNl1MmbsWDWEJE9QMXA4vQgcN72E9u07aCUCfxfOpAmZWhfq4kF1qgtAjUtsN0/JjWYbZdKxZG6RulZxyl2UrSmxEFZSVsG/JANlOv5ca9asWSrqTz7xhGTKnFmGDh2qos3vFOjMmTXVZ4JGqEy9izQf+QeMlX3jL9FVo0YNNQmD3oXDyayhekJCSLI/2FOFLgA1HU51ALSVWAwcRgRFBYHUHSBjdLg453AtDBDWGwAReXqsDO5112xUlqxZ5Kd16zTZYo6LM0+uoVnzZppnMDuuOU55um69eupGXbp0SZ1+PBLyEuhv61qdJdeAahVt6/dEHWsFNuk71YGZs2aq4cATaNSwYeLCOI5EkEx+pkABbb3M5ZZLuQtuJLbPli2rulJmL5bxm3jlPHQtepOCoD0TcB4cjMqh5I3hIuuFy2bqcet6naEMg5qUgLCqAMfgpaSkY1yIWJxESP9+/RKjJPM4VdrJUyarAft8zueJOm/dz+s0X0qixRR98zccp1KAK0W+1P7azP3An39q0zEVAAqQ9BCQ/DHXlWK9TpBLQbUHyRHAmlRxsN8e2NDQK7rIGdOnJ4q+PbGPcrLJSexjHnynb8rcZ3+drduM7kBKLVZOxSd9tuCz2vbTq1dPbbSz92hSrNcJ4hrWhjQrpQmq/QQcxftMnLQcCQ5E0xFQ9nQ1LEx7n2jQSO9cZ+nc2XOqr3///Teds7E/Xi5dClE3i1oX3sGszz7TCqr9b63rdZb0JqdBaTaoJeVTrRwLV0XrQih7MGliavOtDakRehQ3iFSgWXdPOba9yrEeS078fm9QkBT19dX8gfncF2MTOPC8FlWGocOGagIbJrGqj/slF4g/LlVy7jSJmnurVv6ybPlyNSo8lUcBLqUhSwKKMfEAaAgmwoqIuKvcHqsdL0bRzLzTAIO4knAOv3NHLbvpo0bbnqjGPcPvbNO6tRo1FswY5G6LFCmsagFXzSj4JTUwmzcrxXqdoAyDaoi/Cao9sIZ44VxjVZk0udJDhw4m4wQrqBDAsGgyTcToxOeEjXT9IaoDBw1Ut6dd23YqBSRS6H0i6UIGinZ3QtT69RtoMZG+WNKJenNiY9Vtoo8AyaGvAAOY2BFumZd1vc6QC0A1wEyZpTL0KZVP/E6cbuJ6rLS9r+iIOMY5pAJJDxK+kh9wc8ul6TtEds3atcrJtKIzLsU9oiyICItIa+zYMZqI4YbiyKMvly1bqla+Qf0GWl0gB5BkF8xHPZMYxLpeZyjDoDqy/ojq9Rs35Lfff9fuE4p51IqI7/EpKXWwGNMlsoJqDy56mdoRHJk1azattpLRZxwiH1QKkRIhKp2EhKI0/QK0EeIa46MKcLnIRJUs6aelE5LXCkIiM1jX8pBAtec4U1+R0gMEuIvSCIlmjAQPQfj5lZQK5StoSg+xxiMw3zRBtp3fJ/MobA48IFINIJNPLWrOF3O0b4pkCU9XU32Fiye//76eTx+WOQZjkoAml/DGyJEa2tLglhgkOBD7hwsqmX/bw7twKHV3wGzevIXG4RBNbGYzWOnSZfTh3Rc7d9aHdQlH23doL/369VXdu3btmsTXeDA5vAFCTbLzgElyZPmyZTJ/3jxt+sX1WrhooaYB0Z2oCnqqzJvNHAlliah46K1Z06aya+dOXZQ9eClBNTjXul5nKOOg2il4auik4wAKLqxapYp8v/h7fd6UzpLw27e10EejQ/PmzRQARHns2HGqA2lWI/NEeo/E87Jly5UzOUYoyXF3Nzfx8vbSJ0x4NgoitOSaFPg4j4qs2Za5YcN6fU6ATpfy5ctplsoaqaVODwlUyDBU6K1IDfeo4yPeb731pgwdMlT9TkJJOIhaO41mJDeaN2uuXN23bz8VX/QhLhAWm4cjKMJRGCQLxXFco1kzZ2mOldTc38f+Vq5GtfDABMABLuKNqtkbtFcbzujHIlqiRYh8qTUHrFzq0M17MPF3htLspTKdf+4Oi6O7jsd/aMTFGAAw3IZoIoLUoRYvXqSqAGNF5RJdic6k+eyLL7/UBAglZDgW7qQFElHH8HCHHXGZ6nNb+3qVKpXlpZcGSPkK5fUBuVatWqprRuCRHFD7cexsg92+FOt1kkz3LTVyAlQqnHHKZfiJIcHByp0YhilTp0jPXr2UYzhObG/oM2MR6j5FRUnwxYtaQsb/xD+lTuXu4S5du3VVrjPBNN9qkQhGMg4zDCW+LDcG1wsjyTz27jP8VCuA6VGK9TpBGRZ/M0nNRLG4b745UkXf37+VZtTJk8ItTZs2S8ziWyeu1teWZkNF0A6EboVLMXxEQviaPGTBGBB/mx2EcL35HhbGo8vEeBjDXyVl5coVqkcTwXQg6o4N1UMD1QTJ4FYSy/iClJ7pMsFiV6pYSVYsNxdmnXzyhTAeQOFnZs+eQypUqKgq5blq1bT3lVd4QJSZ2Q94dHEj3lRiaZfkmqTwcLdo2MBlY64pr+eYMir+LgI1ifgOeNCCBQuldUCAch3PVhnNtOa5SckQey5RL4L60pgxaqCyZM6ixoq28Vb+/qqbKX/4B/ir91C2bDk9jiGjGsBvsufIodUA/FZARn/ZXy91Snncul5nyDWg2t6SZjjRSQATDZlti3pu4qSTJh8XazyxggiTFCGcpHZUqnRprUeRmqMWjwqgSMh5EGPCgdwsOJPiYd58+bR0TVklU+ZMGmW9PHCgdrMY14hIdLXs1VBSRGVVDQ+NU+3iZihZxsr6dxL4fEcHk9zAJ8WYmM0MX3/9tbRr21aNFQ+vJeeelGPqzYmLkytXQtVrQPQpRaNP8SBIRPM4J4mX55/voPkIg3vtOTNpfvbXs67XGXIRqOYr5+wXb0eWu8+5cAvRUMFncf7HavKkc6dOWioh90ovU2rukzme9XqmsTNdFqSEh97odUWdXAwOVh1brHhxvXmmWkgObnKyrtcZyjioZoOa3VvRHIl54sLtcqY8PEaiGBGOio7WwhxPUPMwGV4DRo9uPWtI6WhcHdtm5OgSRIWsXbNWAwnCXxI8iH7olSuqKmha++voUZ2LdRx7abCu1xnKOKgpMv/GhBTYZI0UNvGKj1PwiKpw+tGVdKngMv2x6Q9NhtSpW0fy5MmrT1mjGoic0M9W0bQCevPWLW1KI5CgkbjAMwW0SsrYx48fk9CwMH0sCNBRDTTAwc3JbpLF3bKu11kCtLTIyXIKE7IDNNldT5okojntw2lSqHBhLcSxQLiWDBXPtvLiQ3IFOO90qvQI7CF1atfRbBbXAzyTrOPyJh9eyUSKEZ1KXuHQwUPK8ejuO3fvauIFg0Wg4VeypCavrWO5AlTrOFZKk1PTHyC5ruUOEeXwaBDWm0Tz5s1bdGFwDrE81prAgXMow1DPx/jwSiSS3RQSaYRgLPP6cD/pRhLPBAfVq9fQJrWY6GitGBiNGdGaNePhMzg0oHVrDTT0bWqWfIAyQ/yDgZph8U/kVDOEtE0q8dMuOOCTBVPZxFAAHp3TgMR5PEMKALhMcB3JESIsSh7auObjoxyMWqha9TkJaB0gL738kv6OBl7EnubfHTt2atxPHoA5jhgxXC5evKDcjK4m0UNKEX3OjSA64zxjHXagPiCnZhxUu5Jvou5MEQaa+jRe/vxzv3IenIIx6dO3r6HX4hPUHaLbD1BJFWK14VQ6U+h4JinN0yQkbAgCqDGhGui0zpM3r6b+4H5KMNTDqBjExsZpDsAIPuLUy8D35ZqUzTGW5hMrjuZsXaszlGFQTeuf3OLHS8I92+S0MmlybZzqS14JAnAnT5zQ6CgyIlJB5bnWqVOn6DFaIQF146+/qt6lOZjoiHgfDoe7KIcgypu3bNYkzLvjx6ubBPD4pagEelu5AWYl1XiOtqmqD16YQNv66dNndC3JQTXIul5nyAWgMoh9yGkD1cEEuRgWnp5QgMMX9fcP0DdAcIzUIX38HIM7EXf2AQjxPQlpRBzuojbF+1VQEXBxLjc3DRoQ8Q8+mKrJFEDlhrVv307/Zr5cEw4HVPQzBUM8Do4Z838UQLU5/0lA2v5OoQIMUOE6dCKGA1eK4h2tjlu3bVMdyTP8dOARGJCUhjNv3Lip5RTzNSFUS3PlzCXFihaT8RPGyx+bNmn3Hg9kMFn0MDcBncqTKDyIjEGi4IjzT1735KmTsnDhIq2scg5rSTZ/29/W9TpDGQZVB7Hd4SQj5ZhTIcSTeJxmCaKn+g3qa4jK340aN9ZoipeF8VbJDevXK8fiIaCHSZrAoTjv1Kpwhyjo4Zti/PAYCEHxRQGYR3jMt/7S9MbflFYwTnB8yZKl1AimVV6xrtUZcgGoySdjFR8rcUEWQTmEbhUMBsbF1JV0/QFQEd8iytGQr29RKVW6lBYAEVvOw8et36CBxvb4o3gFlKqLFPHV3/CwMak/6lfQG2+MVM8jPPyOXpOE+aFDh41nWlMAmnFOtTakWSkdUF1LWGK48+ChQ2pIIACkhcjsEwCI4ydO6DF96sQR/Zn8O3qThViv979BGg6HhqrHkRphZP/PQIWs9RyTnDknLbJe53+LXCD+j8lK/29BNVXBo0hIRXqbgmrdaW4odE5A+aa1meKX1nmmAk/rHDaOo5NMpe9oY//9XjOt85xdJ8cxiOmd5xSo6W3mAtPbnJ04IWh657nyms6uk3EIVtIb7zGo97HOx6DaNmeu6ew6H4Nq25y5prPrvC9QrRbO3tI5Y4nNXnzrfis5MxbXJBhIz/d09TWdPY+oz5m5pQuqM4M4u8D0xjJBZby0znX1NZ09z2lQrexrbs6KhXmR9DZnRPFfI/7Wnebm7MVcucDHoNo2Vy7wMai2zZULfAyqbXPlAh+DattcucDHoNo2Vy7wMai2zZUL/NeAyj+OCCeW8oF1v5U4x3TG0yJnxoKoyqY3niuv6ew6OY9SSnrX1QY17pQjIsvNSdb9VuIcOMe630rOjAURUaUs2KUcy1XXdHadUHrvNIAY67H4O7nO+xJ/605zc/ZirlzgY1BtmysX+BhU2+bKBT4G1ba5coGPQbVtrlzgY1BtmysX+K8BlZMckb3/Zj1mT+YCrfut5MxYHMdP5TOtc115TWfXyXHTT7UesycFlX9SI2cijciIu/LZ8Lbi36qF9o4mo5YtpUWXgXL47FWJiEx7rOioSJk7uoP0+OgnuRtpvHfFek7iubyXJZ3IBkpv/lGRofJR/wAJCHhbDl4Ll6ho++PRcvbwSunZto0sOXhX509EZR3DShpRWdnX3JwVi5ioSPlyVCfp0L6tPrpuUBtp1ay+5PHILu4lGsuBczclMipa72RqW0JcjIxtlVtKDZov0bEJkpDGua4Q/3sJ8XJr1xTx9fIQjxy5ZOKKYxIdl/Q/AIskyImdn0rRXDll2rYIiY413tua2njmxjUzDKqjBSbEx8p/P2oneb3yyhtLj0hETJxynvEfwdCpx13l7WlGY7H+xgR14DyJiDLuujE2zxkYCwEI2ubp96fVnYcpVBwJN7U4l/x3vG0tNRAS4m7I1y/WkUpNX5SXKz4jDfu8J3ci7debBOqH2yIk5qGCei9e9i4aI3k9feSFSSskxgZKdMQN2b36S3m+dnHJ7u4mOXPnk6Z935Vtxy7rcQW1pacUaTNEhnSuJ26e7uKez1f6jJktp0MjhLVcWDpACpR9ToZ0ayRe7jnFq2x/OXI1XI5v/EoCW1bT/6jGLWcW8Xi2grw6cYlcvM3bhB2DEP7PbqlbJr8ETtsqxxb3lQLFGsq2kHBJ4tVHBFQueDdstzQrnlv8ag2VMzejFLB79xLk6IbPpWg+T+kxcblcDg2T0LP7ZVSzwpKn0UgJi4qV2JhoGdPCQ19i8+L4JXI5NFRO/DZbCnl5S7sJS1X8zn3fXzw93MRvwHw5d+myBF+6KuEHlkuh/PkkcMJiuRIapn3+62cOkKc9c8u7P52V2DgH7Y/34mX/6relgHtN+fF8hITfOindK3pJ5fF7JSoWQ8RJjwCoiGD4uV0SWD2P+NXvJTuDIyTOxiX3EuJk5sBq4ll7rBwPuy13IxDfCLl4ZJ1UedpHxvwepoYKTvWp/pqcC+d51XuqRvZ/0Um8i3aWvyNj5J/F/cQzbzmZu+ekxMTGCaNfPb5dPpvxsRy5aPsfg+Lj5OrR36SSr6f0mLlDz7NuCXHX5P2WhaTcS99KeHSsREVGyMK3XxBPr3qy5XykXvsRADVW4qLCZXxgdfHIV1hW7rskMXZKPyEuXAbX9pTsHgWkWCk/8StTUkqWLSklSvhKHo9c0mjSVomKjJSxrbzE/731ajBMbgk9u0jK5iwq805GyZlF/SR3mYay8+9LdtKRILFRd+X6tUty6sgB+WHeNGlTu7R4uuWQ7p/ukGgHoEbunSP5cheTSau3SwgcHxwse5e/L265cspb32xXlXXvYYMaE3lZlgzxF6885eXDjaclMja5yMXHBku/ih7i22aEfDZ7jr4wjP9Gyfj8UtYEBUtMdJSCGjBxg8TEoTL4ZYKEnVskZXOVkHmnI+XMor7iVaah7DqWBGpUyF557YVGki9vfnmuSYAMGD5GPhg3QnzzuzsG9V6kzBvUXNxzZRcP79yS2zu3eHp76qdb1ixSuN1bcjcqVuLvPUxQY6Jl77KJks/LRwZ/vE4XYXWH7sXHyKSOhcTNf7pcu2v816D6NEvETTl+5JCcuxohsTFRMrZlbinW/RMJjzGMG9b+5LJB4u3tL7siDPFPBuq9BFn9Xn/xyVdEVu2/bPwPPnFxEnrkF6lUJLcDUO9J9LVTElCloDR7dbnciDSy/rxLgJt6fn5H8cxeWr46HS4xcXEPDqo1IoAAlEXjYKcXQVwL+lqqF8sv9Yd/J6ev3JTwO8Z/nmhQhOpPHOlN80ZLvtyFZMScX4xzbofJ2imdpECeijLvSLjEREeqocruUVg+WL1fzwnZv1palM4rTd+YK5ExsXJ2cT/JXdoQfySER3cWvdNNvPMUlUW7zusj6reu/CVTe9WR3LmyS7dPtklUtFEh0HXFx8u5zZOkUO6SMnvfNYm1PU1trDNeou+ckJbFc0j5LvPkamSkHNvxiRTNmUOmbb0r0TFx6UZUHNNeKh7FcUQ8nUeruHW/lVaPqKoWOWcuN/0/qL2Skbd4Faws3289JGdPHZDpAzpI2WIFJG+RIvLMMwXEt0xNefU/y+XchWAJvnhB3mjmLQ1f7Ct1yvtJkaJFpGCBItKwbW/5bf9p1X1/ftVTfMo0kF93/6Xz4/rHNi2UZjXLiI93XiniW1iKlq4o7Tt3k6pFn5WWr8yWsxeCk9YUckreb5lPCjd7Uw6dOSeXLOsMCb4gk/o2Fp+CJWXljuOyfd0UKe7pIe/9dE4uBofo86/W9VtJH/mxsq+5OSv+184ekj27d+lT0Q4p6KBcuxOlr/1IiIuWkDN/S9CePbInaJ8cO3tFouNMDyFeLp44IFv2HZWrF0/p/1e9/9AxuXY3Rq08W/S1s3LgyDG5dst4y5Dth3L36gU5uD9Idu8JkiMnL0h4ZIRcOHZUDhw9YzM65qmRcmr/Pjl2/qrE2gyp/Toxercvn5W9+/6U0JtI02U5tG+fhNwyntN1WvytO83NWVCN/zIjNoUoWImxdEKW/fYb382EStI5yc7QfSkCDttvE8n2HVF0dA37fY7WaX9d+/H+D0FNuUBHWyKoaWwc/1ek/qw7zc3Zi7lygY9BtW2uXOC/BdT/AQIhkwdn4dwIAAAAAElFTkSuQmCC;" vertex="1" parent="1">
          <mxGeometry x="509.88" y="765" width="58.27" height="85" as="geometry" />
        </mxCell>
        <mxCell id="S_wav586HDDoZmovN5GA-93" value="&lt;font style=&quot;font-size: 14px;&quot;&gt;&lt;b style=&quot;&quot;&gt;Zebra AI&lt;/b&gt;&lt;/font&gt;&lt;div&gt;&lt;font style=&quot;font-size: 14px;&quot;&gt;&lt;b style=&quot;&quot;&gt;API&lt;/b&gt;&lt;/font&gt;&lt;/div&gt;" style="text;html=1;align=center;verticalAlign=middle;whiteSpace=wrap;rounded=0;" vertex="1" parent="1">
          <mxGeometry x="414" y="782.5" width="110" height="50" as="geometry" />
        </mxCell>
        <mxCell id="S_wav586HDDoZmovN5GA-96" style="edgeStyle=orthogonalEdgeStyle;rounded=0;orthogonalLoop=1;jettySize=auto;html=1;exitX=1;exitY=0.5;exitDx=0;exitDy=0;entryX=0.835;entryY=0.964;entryDx=0;entryDy=0;entryPerimeter=0;strokeColor=#FF8000;strokeWidth=2;" edge="1" parent="1" source="S_wav586HDDoZmovN5GA-94" target="S_wav586HDDoZmovN5GA-31">
          <mxGeometry relative="1" as="geometry" />
        </mxCell>
        <mxCell id="S_wav586HDDoZmovN5GA-97" value="&lt;span style=&quot;font-size: 14px;&quot;&gt;&lt;b&gt;Zebra AI Output&lt;/b&gt;&lt;/span&gt;" style="text;html=1;align=center;verticalAlign=middle;whiteSpace=wrap;rounded=0;" vertex="1" parent="1">
          <mxGeometry x="643" y="756" width="130" height="80" as="geometry" />
        </mxCell>
        <mxCell id="S_wav586HDDoZmovN5GA-98" value="" style="whiteSpace=wrap;html=1;aspect=fixed;" vertex="1" parent="1">
          <mxGeometry x="163" y="740" width="210" height="210" as="geometry" />
        </mxCell>
        <mxCell id="S_wav586HDDoZmovN5GA-99" value="&lt;b style=&quot;&quot;&gt;&lt;font style=&quot;font-size: 13px;&quot;&gt;Resolution Owner Informaiton&lt;/font&gt;&lt;/b&gt;" style="shape=ext;margin=3;double=1;whiteSpace=wrap;html=1;align=center;strokeColor=#FF8000;" vertex="1" parent="1">
          <mxGeometry x="198.5" y="766" width="131.5" height="54" as="geometry" />
        </mxCell>
        <mxCell id="S_wav586HDDoZmovN5GA-100" value="&lt;b style=&quot;&quot;&gt;&lt;font style=&quot;font-size: 14px;&quot;&gt;Resolutions&lt;/font&gt;&lt;/b&gt;" style="shape=ext;margin=3;double=1;whiteSpace=wrap;html=1;align=center;strokeColor=#FF8000;" vertex="1" parent="1">
          <mxGeometry x="199.5" y="847" width="125" height="50" as="geometry" />
        </mxCell>
        <mxCell id="S_wav586HDDoZmovN5GA-101" value="&lt;font color=&quot;#3333ff&quot;&gt;&lt;b&gt;Output&lt;/b&gt;&lt;/font&gt;" style="text;html=1;align=center;verticalAlign=middle;whiteSpace=wrap;rounded=0;" vertex="1" parent="1">
          <mxGeometry x="157" y="741" width="60" height="30" as="geometry" />
        </mxCell>
        <mxCell id="S_wav586HDDoZmovN5GA-102" value="" style="image;aspect=fixed;html=1;points=[];align=center;fontSize=12;image=img/lib/azure2/ai_machine_learning/Bot_Services.svg;" vertex="1" parent="1">
          <mxGeometry x="339.75" y="722.25" width="67.75" height="67.75" as="geometry" />
        </mxCell>
        <mxCell id="S_wav586HDDoZmovN5GA-105" value="&lt;b&gt;&lt;font style=&quot;font-size: 14px; color: rgb(51, 51, 255);&quot;&gt;User&lt;/font&gt;&lt;/b&gt;" style="text;html=1;align=center;verticalAlign=middle;whiteSpace=wrap;rounded=0;" vertex="1" parent="1">
          <mxGeometry x="60.87" y="613" width="60" height="30" as="geometry" />
        </mxCell>
      </root>
    </mxGraphModel>
  </diagram>
</mxfile>
